<svg width="36" height="36" viewBox="0 0 36 36" fill="none" xmlns="http://www.w3.org/2000/svg">
<rect x="0.4" y="0.4" width="35.2" height="35.2" rx="9.6" stroke="#BD3633" stroke-width="0.8"/>
<mask id="path-2-outside-1_21_14" maskUnits="userSpaceOnUse" x="4" y="8" width="28" height="19" fill="black">
<rect fill="white" x="4" y="8" width="28" height="19"/>
<path d="M28.8545 11.2445C29.5485 11.9706 30.0775 12.794 30.4414 13.7148C30.8053 14.6357 30.9915 15.6141 31 16.65C31 16.9599 30.9915 17.3318 30.9746 17.7656C30.9577 18.1995 30.9238 18.6688 30.873 19.1734C30.8223 19.6781 30.7419 20.1961 30.6318 20.7273C30.5218 21.2586 30.3822 21.7854 30.2129 22.3078C29.959 23.0693 29.6628 23.6891 29.3242 24.1672C28.9857 24.6453 28.6344 25.0216 28.2705 25.2961C27.9066 25.5706 27.5384 25.7565 27.166 25.8539C26.7936 25.9513 26.4466 26 26.125 26C25.8457 26 25.5918 25.9513 25.3633 25.8539C25.1348 25.7565 24.9147 25.6237 24.7031 25.4555C24.4915 25.2872 24.2969 25.1057 24.1191 24.9109C23.9414 24.7161 23.7594 24.5036 23.5732 24.2734C23.3955 24.0609 23.222 23.8573 23.0527 23.6625C22.8835 23.4677 22.7015 23.2951 22.5068 23.1445C22.3122 22.994 22.1175 22.8656 21.9229 22.7594C21.7282 22.6531 21.4997 22.6 21.2373 22.6H14.7627C14.5173 22.6089 14.293 22.662 14.0898 22.7594C13.8867 22.8568 13.6878 22.9807 13.4932 23.1313C13.2985 23.2818 13.1208 23.4589 12.96 23.6625C12.7992 23.8661 12.6214 24.0698 12.4268 24.2734C12.249 24.4859 12.0713 24.694 11.8936 24.8977C11.7158 25.1013 11.5212 25.2872 11.3096 25.4555C11.098 25.6237 10.8779 25.7521 10.6494 25.8406C10.4209 25.9292 10.1628 25.9823 9.875 26C9.55339 26 9.20638 25.9513 8.83398 25.8539C8.46159 25.7565 8.09342 25.575 7.72949 25.3094C7.36556 25.0438 7.01432 24.6674 6.67578 24.1805C6.33724 23.6935 6.04102 23.0693 5.78711 22.3078C5.61784 21.7943 5.48242 21.2719 5.38086 20.7406C5.2793 20.2094 5.19889 19.687 5.13965 19.1734C5.0804 18.6599 5.04232 18.1906 5.02539 17.7656C5.00846 17.3406 5 16.9688 5 16.65C5 15.6229 5.18197 14.649 5.5459 13.7281C5.90983 12.8073 6.44303 11.9794 7.14551 11.2445C7.83105 10.5185 8.61816 9.9651 9.50684 9.58438C10.3955 9.20365 11.3307 9.00885 12.3125 9H23.6875C24.6693 9 25.6003 9.19036 26.4805 9.57109C27.3607 9.95182 28.152 10.5096 28.8545 11.2445ZM28.6768 21.75C28.8376 21.2807 28.9645 20.7937 29.0576 20.2891C29.1507 19.7844 29.2184 19.3018 29.2607 18.8414C29.3031 18.381 29.3327 17.956 29.3496 17.5664C29.3665 17.1768 29.375 16.8714 29.375 16.65C29.375 15.8266 29.2269 15.0563 28.9307 14.3391C28.6344 13.6219 28.2282 12.9932 27.7119 12.4531C27.1956 11.913 26.5947 11.488 25.9092 11.1781C25.2236 10.8682 24.4831 10.7089 23.6875 10.7H12.3125C11.5254 10.7 10.7891 10.8549 10.1035 11.1648C9.41797 11.4747 8.81706 11.8997 8.30078 12.4398C7.78451 12.9799 7.37826 13.6086 7.08203 14.3258C6.78581 15.043 6.63346 15.8177 6.625 16.65C6.625 16.8802 6.62923 17.1857 6.6377 17.5664C6.64616 17.9471 6.67578 18.3677 6.72656 18.8281C6.77734 19.2885 6.84928 19.7755 6.94238 20.2891C7.03548 20.8026 7.16243 21.2896 7.32324 21.75C7.53483 22.3875 7.76758 22.8789 8.02148 23.2242C8.27539 23.5695 8.52083 23.8219 8.75781 23.9813C8.99479 24.1406 9.21484 24.2336 9.41797 24.2602C9.62109 24.2867 9.77344 24.3 9.875 24.3C10.0612 24.3 10.2643 24.1849 10.4844 23.9547C10.7044 23.7245 10.9414 23.4589 11.1953 23.1578C11.3984 22.9099 11.6143 22.6576 11.8428 22.4008C12.0713 22.144 12.3294 21.9049 12.6172 21.6836C12.9049 21.4622 13.2223 21.2807 13.5693 21.1391C13.9163 20.9974 14.3014 20.9177 14.7246 20.9H21.2754C21.6986 20.9177 22.0837 20.9974 22.4307 21.1391C22.7777 21.2807 23.0908 21.4578 23.3701 21.6703C23.6494 21.8828 23.9076 22.1219 24.1445 22.3875C24.3815 22.6531 24.6016 22.9099 24.8047 23.1578C25.0501 23.45 25.2829 23.7112 25.5029 23.9414C25.723 24.1716 25.9303 24.2911 26.125 24.3C26.2266 24.3 26.3747 24.2867 26.5693 24.2602C26.764 24.2336 26.984 24.1406 27.2295 23.9813C27.4749 23.8219 27.7246 23.5695 27.9785 23.2242C28.2324 22.8789 28.4652 22.3875 28.6768 21.75ZM11.5 15.8H13.125V17.5H11.5V19.2H9.875V17.5H8.25V15.8H9.875V14.1H11.5V15.8ZM26.125 17.5C26.3535 17.5 26.5651 17.5443 26.7598 17.6328C26.9544 17.7214 27.1237 17.8409 27.2676 17.9914C27.4115 18.1419 27.5299 18.3234 27.623 18.5359C27.7161 18.7484 27.7585 18.9698 27.75 19.2C27.75 19.4391 27.7077 19.6604 27.623 19.8641C27.5384 20.0677 27.4242 20.2448 27.2803 20.3953C27.1364 20.5458 26.9629 20.6698 26.7598 20.7672C26.5566 20.8646 26.3451 20.9089 26.125 20.9C25.8965 20.9 25.6849 20.8557 25.4902 20.7672C25.2956 20.6786 25.1263 20.5591 24.9824 20.4086C24.8385 20.2581 24.7201 20.0766 24.627 19.8641C24.5339 19.6516 24.4915 19.4302 24.5 19.2C24.5 18.9609 24.5423 18.7396 24.627 18.5359C24.7116 18.3323 24.8258 18.1552 24.9697 18.0047C25.1136 17.8542 25.2871 17.7302 25.4902 17.6328C25.6934 17.5354 25.9049 17.4911 26.125 17.5ZM22.875 14.1C23.1035 14.1 23.3151 14.1443 23.5098 14.2328C23.7044 14.3214 23.8737 14.4409 24.0176 14.5914C24.1615 14.7419 24.2799 14.9234 24.373 15.1359C24.4661 15.3484 24.5085 15.5698 24.5 15.8C24.5 16.0391 24.4577 16.2604 24.373 16.4641C24.2884 16.6677 24.1742 16.8448 24.0303 16.9953C23.8864 17.1458 23.7129 17.2698 23.5098 17.3672C23.3066 17.4646 23.0951 17.5089 22.875 17.5C22.6465 17.5 22.4349 17.4557 22.2402 17.3672C22.0456 17.2786 21.8763 17.1591 21.7324 17.0086C21.5885 16.8581 21.4701 16.6766 21.377 16.4641C21.2839 16.2516 21.2415 16.0302 21.25 15.8C21.25 15.5609 21.2923 15.3396 21.377 15.1359C21.4616 14.9323 21.5758 14.7552 21.7197 14.6047C21.8636 14.4542 22.0371 14.3302 22.2402 14.2328C22.4434 14.1354 22.6549 14.0911 22.875 14.1Z"/>
</mask>
<path d="M28.8545 11.2445C29.5485 11.9706 30.0775 12.794 30.4414 13.7148C30.8053 14.6357 30.9915 15.6141 31 16.65C31 16.9599 30.9915 17.3318 30.9746 17.7656C30.9577 18.1995 30.9238 18.6688 30.873 19.1734C30.8223 19.6781 30.7419 20.1961 30.6318 20.7273C30.5218 21.2586 30.3822 21.7854 30.2129 22.3078C29.959 23.0693 29.6628 23.6891 29.3242 24.1672C28.9857 24.6453 28.6344 25.0216 28.2705 25.2961C27.9066 25.5706 27.5384 25.7565 27.166 25.8539C26.7936 25.9513 26.4466 26 26.125 26C25.8457 26 25.5918 25.9513 25.3633 25.8539C25.1348 25.7565 24.9147 25.6237 24.7031 25.4555C24.4915 25.2872 24.2969 25.1057 24.1191 24.9109C23.9414 24.7161 23.7594 24.5036 23.5732 24.2734C23.3955 24.0609 23.222 23.8573 23.0527 23.6625C22.8835 23.4677 22.7015 23.2951 22.5068 23.1445C22.3122 22.994 22.1175 22.8656 21.9229 22.7594C21.7282 22.6531 21.4997 22.6 21.2373 22.6H14.7627C14.5173 22.6089 14.293 22.662 14.0898 22.7594C13.8867 22.8568 13.6878 22.9807 13.4932 23.1313C13.2985 23.2818 13.1208 23.4589 12.96 23.6625C12.7992 23.8661 12.6214 24.0698 12.4268 24.2734C12.249 24.4859 12.0713 24.694 11.8936 24.8977C11.7158 25.1013 11.5212 25.2872 11.3096 25.4555C11.098 25.6237 10.8779 25.7521 10.6494 25.8406C10.4209 25.9292 10.1628 25.9823 9.875 26C9.55339 26 9.20638 25.9513 8.83398 25.8539C8.46159 25.7565 8.09342 25.575 7.72949 25.3094C7.36556 25.0438 7.01432 24.6674 6.67578 24.1805C6.33724 23.6935 6.04102 23.0693 5.78711 22.3078C5.61784 21.7943 5.48242 21.2719 5.38086 20.7406C5.2793 20.2094 5.19889 19.687 5.13965 19.1734C5.0804 18.6599 5.04232 18.1906 5.02539 17.7656C5.00846 17.3406 5 16.9688 5 16.65C5 15.6229 5.18197 14.649 5.5459 13.7281C5.90983 12.8073 6.44303 11.9794 7.14551 11.2445C7.83105 10.5185 8.61816 9.9651 9.50684 9.58438C10.3955 9.20365 11.3307 9.00885 12.3125 9H23.6875C24.6693 9 25.6003 9.19036 26.4805 9.57109C27.3607 9.95182 28.152 10.5096 28.8545 11.2445ZM28.6768 21.75C28.8376 21.2807 28.9645 20.7937 29.0576 20.2891C29.1507 19.7844 29.2184 19.3018 29.2607 18.8414C29.3031 18.381 29.3327 17.956 29.3496 17.5664C29.3665 17.1768 29.375 16.8714 29.375 16.65C29.375 15.8266 29.2269 15.0563 28.9307 14.3391C28.6344 13.6219 28.2282 12.9932 27.7119 12.4531C27.1956 11.913 26.5947 11.488 25.9092 11.1781C25.2236 10.8682 24.4831 10.7089 23.6875 10.7H12.3125C11.5254 10.7 10.7891 10.8549 10.1035 11.1648C9.41797 11.4747 8.81706 11.8997 8.30078 12.4398C7.78451 12.9799 7.37826 13.6086 7.08203 14.3258C6.78581 15.043 6.63346 15.8177 6.625 16.65C6.625 16.8802 6.62923 17.1857 6.6377 17.5664C6.64616 17.9471 6.67578 18.3677 6.72656 18.8281C6.77734 19.2885 6.84928 19.7755 6.94238 20.2891C7.03548 20.8026 7.16243 21.2896 7.32324 21.75C7.53483 22.3875 7.76758 22.8789 8.02148 23.2242C8.27539 23.5695 8.52083 23.8219 8.75781 23.9813C8.99479 24.1406 9.21484 24.2336 9.41797 24.2602C9.62109 24.2867 9.77344 24.3 9.875 24.3C10.0612 24.3 10.2643 24.1849 10.4844 23.9547C10.7044 23.7245 10.9414 23.4589 11.1953 23.1578C11.3984 22.9099 11.6143 22.6576 11.8428 22.4008C12.0713 22.144 12.3294 21.9049 12.6172 21.6836C12.9049 21.4622 13.2223 21.2807 13.5693 21.1391C13.9163 20.9974 14.3014 20.9177 14.7246 20.9H21.2754C21.6986 20.9177 22.0837 20.9974 22.4307 21.1391C22.7777 21.2807 23.0908 21.4578 23.3701 21.6703C23.6494 21.8828 23.9076 22.1219 24.1445 22.3875C24.3815 22.6531 24.6016 22.9099 24.8047 23.1578C25.0501 23.45 25.2829 23.7112 25.5029 23.9414C25.723 24.1716 25.9303 24.2911 26.125 24.3C26.2266 24.3 26.3747 24.2867 26.5693 24.2602C26.764 24.2336 26.984 24.1406 27.2295 23.9813C27.4749 23.8219 27.7246 23.5695 27.9785 23.2242C28.2324 22.8789 28.4652 22.3875 28.6768 21.75ZM11.5 15.8H13.125V17.5H11.5V19.2H9.875V17.5H8.25V15.8H9.875V14.1H11.5V15.8ZM26.125 17.5C26.3535 17.5 26.5651 17.5443 26.7598 17.6328C26.9544 17.7214 27.1237 17.8409 27.2676 17.9914C27.4115 18.1419 27.5299 18.3234 27.623 18.5359C27.7161 18.7484 27.7585 18.9698 27.75 19.2C27.75 19.4391 27.7077 19.6604 27.623 19.8641C27.5384 20.0677 27.4242 20.2448 27.2803 20.3953C27.1364 20.5458 26.9629 20.6698 26.7598 20.7672C26.5566 20.8646 26.3451 20.9089 26.125 20.9C25.8965 20.9 25.6849 20.8557 25.4902 20.7672C25.2956 20.6786 25.1263 20.5591 24.9824 20.4086C24.8385 20.2581 24.7201 20.0766 24.627 19.8641C24.5339 19.6516 24.4915 19.4302 24.5 19.2C24.5 18.9609 24.5423 18.7396 24.627 18.5359C24.7116 18.3323 24.8258 18.1552 24.9697 18.0047C25.1136 17.8542 25.2871 17.7302 25.4902 17.6328C25.6934 17.5354 25.9049 17.4911 26.125 17.5ZM22.875 14.1C23.1035 14.1 23.3151 14.1443 23.5098 14.2328C23.7044 14.3214 23.8737 14.4409 24.0176 14.5914C24.1615 14.7419 24.2799 14.9234 24.373 15.1359C24.4661 15.3484 24.5085 15.5698 24.5 15.8C24.5 16.0391 24.4577 16.2604 24.373 16.4641C24.2884 16.6677 24.1742 16.8448 24.0303 16.9953C23.8864 17.1458 23.7129 17.2698 23.5098 17.3672C23.3066 17.4646 23.0951 17.5089 22.875 17.5C22.6465 17.5 22.4349 17.4557 22.2402 17.3672C22.0456 17.2786 21.8763 17.1591 21.7324 17.0086C21.5885 16.8581 21.4701 16.6766 21.377 16.4641C21.2839 16.2516 21.2415 16.0302 21.25 15.8C21.25 15.5609 21.2923 15.3396 21.377 15.1359C21.4616 14.9323 21.5758 14.7552 21.7197 14.6047C21.8636 14.4542 22.0371 14.3302 22.2402 14.2328C22.4434 14.1354 22.6549 14.0911 22.875 14.1Z" fill="#BD3633"/>
<path d="M28.8545 11.2445C29.5485 11.9706 30.0775 12.794 30.4414 13.7148C30.8053 14.6357 30.9915 15.6141 31 16.65C31 16.9599 30.9915 17.3318 30.9746 17.7656C30.9577 18.1995 30.9238 18.6688 30.873 19.1734C30.8223 19.6781 30.7419 20.1961 30.6318 20.7273C30.5218 21.2586 30.3822 21.7854 30.2129 22.3078C29.959 23.0693 29.6628 23.6891 29.3242 24.1672C28.9857 24.6453 28.6344 25.0216 28.2705 25.2961C27.9066 25.5706 27.5384 25.7565 27.166 25.8539C26.7936 25.9513 26.4466 26 26.125 26C25.8457 26 25.5918 25.9513 25.3633 25.8539C25.1348 25.7565 24.9147 25.6237 24.7031 25.4555C24.4915 25.2872 24.2969 25.1057 24.1191 24.9109C23.9414 24.7161 23.7594 24.5036 23.5732 24.2734C23.3955 24.0609 23.222 23.8573 23.0527 23.6625C22.8835 23.4677 22.7015 23.2951 22.5068 23.1445C22.3122 22.994 22.1175 22.8656 21.9229 22.7594C21.7282 22.6531 21.4997 22.6 21.2373 22.6H14.7627C14.5173 22.6089 14.293 22.662 14.0898 22.7594C13.8867 22.8568 13.6878 22.9807 13.4932 23.1313C13.2985 23.2818 13.1208 23.4589 12.96 23.6625C12.7992 23.8661 12.6214 24.0698 12.4268 24.2734C12.249 24.4859 12.0713 24.694 11.8936 24.8977C11.7158 25.1013 11.5212 25.2872 11.3096 25.4555C11.098 25.6237 10.8779 25.7521 10.6494 25.8406C10.4209 25.9292 10.1628 25.9823 9.875 26C9.55339 26 9.20638 25.9513 8.83398 25.8539C8.46159 25.7565 8.09342 25.575 7.72949 25.3094C7.36556 25.0438 7.01432 24.6674 6.67578 24.1805C6.33724 23.6935 6.04102 23.0693 5.78711 22.3078C5.61784 21.7943 5.48242 21.2719 5.38086 20.7406C5.2793 20.2094 5.19889 19.687 5.13965 19.1734C5.0804 18.6599 5.04232 18.1906 5.02539 17.7656C5.00846 17.3406 5 16.9688 5 16.65C5 15.6229 5.18197 14.649 5.5459 13.7281C5.90983 12.8073 6.44303 11.9794 7.14551 11.2445C7.83105 10.5185 8.61816 9.9651 9.50684 9.58438C10.3955 9.20365 11.3307 9.00885 12.3125 9H23.6875C24.6693 9 25.6003 9.19036 26.4805 9.57109C27.3607 9.95182 28.152 10.5096 28.8545 11.2445ZM28.6768 21.75C28.8376 21.2807 28.9645 20.7937 29.0576 20.2891C29.1507 19.7844 29.2184 19.3018 29.2607 18.8414C29.3031 18.381 29.3327 17.956 29.3496 17.5664C29.3665 17.1768 29.375 16.8714 29.375 16.65C29.375 15.8266 29.2269 15.0563 28.9307 14.3391C28.6344 13.6219 28.2282 12.9932 27.7119 12.4531C27.1956 11.913 26.5947 11.488 25.9092 11.1781C25.2236 10.8682 24.4831 10.7089 23.6875 10.7H12.3125C11.5254 10.7 10.7891 10.8549 10.1035 11.1648C9.41797 11.4747 8.81706 11.8997 8.30078 12.4398C7.78451 12.9799 7.37826 13.6086 7.08203 14.3258C6.78581 15.043 6.63346 15.8177 6.625 16.65C6.625 16.8802 6.62923 17.1857 6.6377 17.5664C6.64616 17.9471 6.67578 18.3677 6.72656 18.8281C6.77734 19.2885 6.84928 19.7755 6.94238 20.2891C7.03548 20.8026 7.16243 21.2896 7.32324 21.75C7.53483 22.3875 7.76758 22.8789 8.02148 23.2242C8.27539 23.5695 8.52083 23.8219 8.75781 23.9813C8.99479 24.1406 9.21484 24.2336 9.41797 24.2602C9.62109 24.2867 9.77344 24.3 9.875 24.3C10.0612 24.3 10.2643 24.1849 10.4844 23.9547C10.7044 23.7245 10.9414 23.4589 11.1953 23.1578C11.3984 22.9099 11.6143 22.6576 11.8428 22.4008C12.0713 22.144 12.3294 21.9049 12.6172 21.6836C12.9049 21.4622 13.2223 21.2807 13.5693 21.1391C13.9163 20.9974 14.3014 20.9177 14.7246 20.9H21.2754C21.6986 20.9177 22.0837 20.9974 22.4307 21.1391C22.7777 21.2807 23.0908 21.4578 23.3701 21.6703C23.6494 21.8828 23.9076 22.1219 24.1445 22.3875C24.3815 22.6531 24.6016 22.9099 24.8047 23.1578C25.0501 23.45 25.2829 23.7112 25.5029 23.9414C25.723 24.1716 25.9303 24.2911 26.125 24.3C26.2266 24.3 26.3747 24.2867 26.5693 24.2602C26.764 24.2336 26.984 24.1406 27.2295 23.9813C27.4749 23.8219 27.7246 23.5695 27.9785 23.2242C28.2324 22.8789 28.4652 22.3875 28.6768 21.75ZM11.5 15.8H13.125V17.5H11.5V19.2H9.875V17.5H8.25V15.8H9.875V14.1H11.5V15.8ZM26.125 17.5C26.3535 17.5 26.5651 17.5443 26.7598 17.6328C26.9544 17.7214 27.1237 17.8409 27.2676 17.9914C27.4115 18.1419 27.5299 18.3234 27.623 18.5359C27.7161 18.7484 27.7585 18.9698 27.75 19.2C27.75 19.4391 27.7077 19.6604 27.623 19.8641C27.5384 20.0677 27.4242 20.2448 27.2803 20.3953C27.1364 20.5458 26.9629 20.6698 26.7598 20.7672C26.5566 20.8646 26.3451 20.9089 26.125 20.9C25.8965 20.9 25.6849 20.8557 25.4902 20.7672C25.2956 20.6786 25.1263 20.5591 24.9824 20.4086C24.8385 20.2581 24.7201 20.0766 24.627 19.8641C24.5339 19.6516 24.4915 19.4302 24.5 19.2C24.5 18.9609 24.5423 18.7396 24.627 18.5359C24.7116 18.3323 24.8258 18.1552 24.9697 18.0047C25.1136 17.8542 25.2871 17.7302 25.4902 17.6328C25.6934 17.5354 25.9049 17.4911 26.125 17.5ZM22.875 14.1C23.1035 14.1 23.3151 14.1443 23.5098 14.2328C23.7044 14.3214 23.8737 14.4409 24.0176 14.5914C24.1615 14.7419 24.2799 14.9234 24.373 15.1359C24.4661 15.3484 24.5085 15.5698 24.5 15.8C24.5 16.0391 24.4577 16.2604 24.373 16.4641C24.2884 16.6677 24.1742 16.8448 24.0303 16.9953C23.8864 17.1458 23.7129 17.2698 23.5098 17.3672C23.3066 17.4646 23.0951 17.5089 22.875 17.5C22.6465 17.5 22.4349 17.4557 22.2402 17.3672C22.0456 17.2786 21.8763 17.1591 21.7324 17.0086C21.5885 16.8581 21.4701 16.6766 21.377 16.4641C21.2839 16.2516 21.2415 16.0302 21.25 15.8C21.25 15.5609 21.2923 15.3396 21.377 15.1359C21.4616 14.9323 21.5758 14.7552 21.7197 14.6047C21.8636 14.4542 22.0371 14.3302 22.2402 14.2328C22.4434 14.1354 22.6549 14.0911 22.875 14.1Z" stroke="#BD3633" stroke-width="0.8" mask="url(#path-2-outside-1_21_14)"/>
</svg>
