<svg width="36" height="36" viewBox="0 0 36 36" fill="none" xmlns="http://www.w3.org/2000/svg">
<rect x="0.4" y="0.4" width="35.2" height="35.2" rx="9.6" stroke="#BD3633" stroke-width="0.8"/>
<path d="M18.4547 7.51858C17.8593 7.19518 17.1407 7.19518 16.5453 7.51858L5.61832 13.4542C4.92129 13.8329 4.92147 14.8335 5.61863 15.2119L8.8045 16.941C8.86895 16.976 8.90909 17.0434 8.90909 17.1168V23.7364C8.90909 24.1029 9.10957 24.4401 9.43158 24.6151L17.0225 28.7405C17.3203 28.9023 17.6797 28.9023 17.9775 28.7405L25.5684 24.6151C25.8904 24.4401 26.0909 24.1029 26.0909 23.7364V17.1168C26.0909 17.0434 26.131 16.976 26.1955 16.941L28.25 15.8259C28.3833 15.7536 28.5455 15.85 28.5455 16.0017V23.9111C28.5455 24.0216 28.635 24.1111 28.7455 24.1111H30.8C30.9105 24.1111 31 24.0216 31 23.9111V14.9281C31 14.5616 30.7994 14.2244 30.4773 14.0494L18.4547 7.51858ZM25.5465 14.1576C25.6858 14.2333 25.6858 14.4334 25.5465 14.5091L18.4547 18.3614C17.8593 18.6848 17.1407 18.6848 16.5453 18.3614L9.45353 14.5091C9.31415 14.4334 9.31415 14.2333 9.45353 14.1576L16.5453 10.3052C17.1407 9.98185 17.8593 9.98184 18.4547 10.3052L25.5465 14.1576ZM23.6364 22.7698C23.6364 22.8432 23.5962 22.9107 23.5316 22.9456L17.5953 26.1617C17.5358 26.1939 17.4642 26.1939 17.4047 26.1617L11.4684 22.9456C11.4038 22.9107 11.3636 22.8432 11.3636 22.7698V18.6664C11.3636 18.5147 11.5259 18.4182 11.6592 18.4907L16.5446 21.1472C17.1403 21.4711 17.8597 21.4711 18.4554 21.1472L23.3408 18.4907C23.4741 18.4182 23.6364 18.5147 23.6364 18.6664V22.7698Z" fill="#BD3633"/>
</svg>
