<svg width="36" height="36" viewBox="0 0 36 36" fill="none" xmlns="http://www.w3.org/2000/svg">
<rect x="0.5" y="0.5" width="35" height="35" rx="9.5" stroke="#BD3633"/>
<path d="M13.4705 4.39734V4.39832C13.9379 4.39693 14.396 4.52924 14.7898 4.78113C15.184 5.03327 15.4974 5.39373 15.6921 5.81921H15.6912L17.9998 10.7538L20.2966 5.81824C20.4914 5.39324 20.8042 5.03306 21.198 4.78113C21.592 4.52905 22.0505 4.39581 22.5183 4.39734H29.1335C29.5452 4.39827 29.9505 4.50159 30.3123 4.69812C30.6289 4.87018 30.9036 5.10917 31.1179 5.39734L31.2058 5.52332L31.2078 5.52722C31.4261 5.87818 31.5542 6.27776 31.5798 6.69031C31.6055 7.10305 31.5277 7.51606 31.3542 7.89148V7.89246L25.7664 19.8573C26.2122 20.8983 26.4421 22.0192 26.4382 23.1522L26.4275 23.5712C26.324 25.6598 25.4484 27.6421 23.9626 29.1278C22.378 30.7123 20.229 31.6024 17.988 31.6024C15.7471 31.6024 13.5981 30.7123 12.0134 29.1278C10.4287 27.5431 9.53784 25.3933 9.53784 23.1522L9.55054 22.7147C9.60307 21.7273 9.82624 20.7559 10.2097 19.8427L4.6521 7.89246C4.47644 7.51997 4.39751 7.10919 4.42261 6.69812C4.44773 6.28695 4.57587 5.88832 4.79565 5.53992C5.01545 5.1916 5.3202 4.90466 5.68042 4.70496C6.04066 4.50529 6.44531 4.39915 6.85718 4.39734H13.4705ZM20.4949 17.1014C19.298 16.6057 17.9803 16.4757 16.7097 16.7284C15.4393 16.9812 14.2721 17.6054 13.3562 18.5214C12.4403 19.4373 11.8169 20.6044 11.5642 21.8749C11.3115 23.1454 11.4406 24.4623 11.9363 25.6591C12.432 26.8559 13.2722 27.8788 14.3494 28.5985C15.4265 29.3182 16.6926 29.703 17.988 29.703C18.8482 29.703 19.7002 29.5331 20.4949 29.204C21.2895 28.8748 22.0117 28.3922 22.6199 27.7841C23.228 27.1759 23.7107 26.4537 24.0398 25.6591C24.3689 24.8644 24.5378 24.0123 24.5378 23.1522C24.5378 21.8569 24.154 20.5906 23.4343 19.5135C22.7147 18.4365 21.6916 17.5972 20.4949 17.1014ZM6.78979 6.30164C6.72181 6.31029 6.65594 6.33204 6.59546 6.36511C6.51474 6.40931 6.44593 6.4732 6.39624 6.55066C6.34854 6.63149 6.321 6.72256 6.31519 6.81628C6.30932 6.91202 6.32685 7.00801 6.36597 7.09558H6.36499L11.3855 17.8964C12.1398 16.9473 13.0885 16.1692 14.1716 15.619C15.2884 15.0518 16.5171 14.7431 17.7673 14.7089L13.9822 6.61804C13.9362 6.52223 13.8641 6.44134 13.7742 6.38464C13.6841 6.32787 13.5798 6.29783 13.4734 6.29773H6.85815L6.78979 6.30164ZM22.5183 6.29773C22.4117 6.29775 22.3067 6.32779 22.2166 6.38464C22.1265 6.44149 22.0545 6.52293 22.0085 6.61902L19.0486 12.9823L19.9597 14.9413C21.794 15.3773 23.4249 16.4182 24.5916 17.8934L29.6414 7.09265C29.6808 7.00686 29.6979 6.91236 29.6902 6.81824C29.6824 6.72388 29.6505 6.63296 29.5974 6.55457L29.5925 6.54675C29.5452 6.46905 29.478 6.40493 29.3982 6.36121C29.3184 6.31751 29.2284 6.29583 29.1375 6.29773H22.5183Z" fill="#BD3633" stroke="#BD3633" stroke-width="0.4"/>
<path d="M18.1155 25.32L19.6515 26.127C19.6947 26.15 19.7435 26.1604 19.7923 26.1569C19.8411 26.1535 19.888 26.1364 19.9275 26.1077C19.9671 26.0789 19.9978 26.0396 20.0161 25.9942C20.0344 25.9488 20.0396 25.8992 20.031 25.851L19.731 24.141C19.7235 24.0992 19.7266 24.0562 19.7399 24.0158C19.7533 23.9755 19.7765 23.9391 19.8075 23.91L21.0495 22.6995C21.0854 22.6652 21.1107 22.6213 21.1226 22.5731C21.1345 22.5249 21.1325 22.4742 21.1168 22.4271C21.1011 22.38 21.0724 22.3383 21.0339 22.3069C20.9954 22.2754 20.9488 22.2556 20.8995 22.2495L19.2 22.0035C19.1574 21.9962 19.1172 21.9788 19.0827 21.9527C19.0483 21.9266 19.0206 21.8926 19.002 21.8535L18.234 20.298C18.2126 20.254 18.1792 20.2169 18.1377 20.1909C18.0962 20.1649 18.0482 20.1511 17.9993 20.1511C17.9503 20.1511 17.9023 20.1649 17.8608 20.1909C17.8193 20.2169 17.7859 20.254 17.7645 20.298L16.9965 21.8535C16.9792 21.8932 16.952 21.9277 16.9177 21.954C16.8833 21.9802 16.8428 21.9973 16.8 22.0035L15.0825 22.2525C15.0332 22.2586 14.9866 22.2784 14.9481 22.3099C14.9097 22.3413 14.8809 22.383 14.8652 22.4301C14.8495 22.4772 14.8475 22.5279 14.8594 22.5761C14.8713 22.6243 14.8967 22.6682 14.9325 22.7025L16.1745 23.913C16.2052 23.9423 16.2282 23.9787 16.2413 24.019C16.2544 24.0594 16.2572 24.1023 16.2495 24.144L15.9495 25.854C15.941 25.9022 15.9462 25.9518 15.9645 25.9972C15.9828 26.0426 16.0134 26.0819 16.053 26.1107C16.0926 26.1394 16.1394 26.1565 16.1882 26.1599C16.237 26.1634 16.2858 26.153 16.329 26.13L17.865 25.323C17.903 25.301 17.946 25.2892 17.9899 25.2887C18.0338 25.2881 18.077 25.2989 18.1155 25.32Z" fill="#BD3633"/>
</svg>
