<svg width="36" height="36" viewBox="0 0 36 36" fill="none" xmlns="http://www.w3.org/2000/svg">
<g clip-path="url(#clip0_27_19)">
<path d="M1.19531 34.8047L20.3203 15.6797" stroke="#BD3633" stroke-width="2" stroke-linecap="round" stroke-linejoin="round"/>
<path d="M18.9141 1.19531L20.1094 9.28125L12.5156 13.5L21.0234 14.9766L22.3594 23.4141L26.2266 15.75L34.6641 17.0156L28.6172 11.0391L32.625 3.375L24.9609 7.3125L18.9141 1.19531Z" stroke="#BD3633" stroke-width="2" stroke-linecap="round" stroke-linejoin="round"/>
<path d="M9.84375 2.70703C10.4457 2.70703 10.9336 3.19497 10.9336 3.79688C10.9336 4.39878 10.4457 4.88672 9.84375 4.88672C9.24185 4.88672 8.75391 4.39878 8.75391 3.79688C8.75391 3.19497 9.24185 2.70703 9.84375 2.70703Z" fill="#BD3633" stroke="#BD3633" stroke-width="0.0703125"/>
<path d="M8.85938 8.89453C9.46128 8.89453 9.94922 9.38247 9.94922 9.98438C9.94922 10.5863 9.46128 11.0742 8.85938 11.0742C8.25747 11.0742 7.76953 10.5863 7.76953 9.98438C7.76953 9.38247 8.25747 8.89453 8.85938 8.89453Z" fill="#BD3633" stroke="#BD3633" stroke-width="0.0703125"/>
<path d="M26.0156 26.0508C26.6175 26.0508 27.1055 26.5387 27.1055 27.1406C27.1055 27.7425 26.6175 28.2305 26.0156 28.2305C25.4137 28.2305 24.9258 27.7425 24.9258 27.1406C24.9258 26.5387 25.4137 26.0508 26.0156 26.0508Z" fill="#BD3633" stroke="#BD3633" stroke-width="0.0703125"/>
<path d="M32.2031 25.0664C32.805 25.0664 33.293 25.5543 33.293 26.1562C33.293 26.7582 32.805 27.2461 32.2031 27.2461C31.6012 27.2461 31.1133 26.7582 31.1133 26.1562C31.1133 25.5543 31.6012 25.0664 32.2031 25.0664Z" fill="#BD3633" stroke="#BD3633" stroke-width="0.0703125"/>
</g>
<rect x="0.5" y="0.5" width="35" height="35" rx="9.5" stroke="#BD3633"/>
<defs>
<clipPath id="clip0_27_19">
<rect width="36" height="36" rx="10" fill="white"/>
</clipPath>
</defs>
</svg>
